# xmcd CD database file
# Copyright (C) 1993-1998 Ti Kan
# 
# Track frame offsets:
#     183
#     29703
#     54583
#     77115
#     94570
#     110763
#     133658
#     153770
#     173763
#     189520
#     209158
#     234683
#     252488
# 
# Disc length: 3651 seconds
# 
# Revision: 1
# Processed by: cddbd v1.4b41PL1 Copyright (c) Steve Scherf et al.
# Submitted via: DiscPlay 4.0.4
# 
DISCID=b80e410d
DTITLE=Champion Jack Dupree - The Death Of Louis
DYEAR=1900
DGENRE=
TTITLE0=The Death Of Louis
TTITLE1=I'm Happy To Be Free
TTITLE2=Speakeasy Days
TTITLE3=Real Trouble
TTITLE4=Let's Go
TTITLE5=One Scotch, One Bourbon, One Beer
TTITLE6=Dupree's Special
TTITLE7=She's Mad
TTITLE8=Alberta
TTITLE9=I Love You So
TTITLE10=It's A Hard Pillow
TTITLE11=Sleepin'
TTITLE12=Don't You Know
EXTD=
EXTT0=
EXTT1=
EXTT2=
EXTT3=
EXTT4=
EXTT5=
EXTT6=
EXTT7=
EXTT8=
EXTT9=
EXTT10=
EXTT11=
EXTT12=
PLAYORDER=
